<svg width="24" height="24" viewBox="0 0 24 24" fill="none" xmlns="http://www.w3.org/2000/svg">
<path d="M21.9591 13.7189V21.0979H17.6811V14.2129C17.6811 12.4829 17.0621 11.3029 15.5141 11.3029C14.3321 11.3029 13.6281 12.0989 13.3191 12.8679C13.2061 13.1429 13.1771 13.5259 13.1771 13.9109V21.0979H8.89706C8.89706 21.0979 8.95506 9.43788 8.89706 8.22888H13.1771V10.0529L13.1491 10.0949H13.1771V10.0529C13.7451 9.17788 14.7601 7.92688 17.0331 7.92688C19.8481 7.92688 21.9591 9.76688 21.9591 13.7189ZM4.42106 2.02588C2.95806 2.02588 2.00006 2.98588 2.00006 4.24888C2.00006 5.48388 2.93006 6.47288 4.36506 6.47288H4.39306C5.88606 6.47288 6.81306 5.48388 6.81306 4.24888C6.78706 2.98588 5.88706 2.02588 4.42206 2.02588H4.42106ZM2.25406 21.0979H6.53206V8.22888H2.25406V21.0979Z" fill="#ffffff"/>
</svg>
