<svg width="24" height="24" viewBox="0 0 24 24" fill="none" xmlns="http://www.w3.org/2000/svg">
<path d="M22.0001 5.90692C21.2504 6.2343 20.4565 6.44896 19.6441 6.54392C20.4968 6.04315 21.1381 5.24903 21.4481 4.30992C20.6401 4.78025 19.7588 5.11152 18.8411 5.28992C18.4546 4.88513 17.9897 4.56331 17.4748 4.3441C16.9599 4.12489 16.4057 4.01289 15.8461 4.01492C13.5801 4.01492 11.7431 5.82492 11.7431 8.05492C11.7431 8.37092 11.7791 8.67992 11.8491 8.97492C10.2236 8.89761 8.63218 8.48233 7.17623 7.75556C5.72028 7.02879 4.43182 6.0065 3.39306 4.75392C3.02889 5.36832 2.83748 6.0697 2.83906 6.78392C2.83976 7.45189 3.00689 8.10915 3.32535 8.69631C3.64381 9.28348 4.10357 9.78203 4.66306 10.1469C4.01255 10.1259 3.37608 9.95225 2.80506 9.63992V9.68992C2.80506 11.6479 4.22006 13.2809 6.09506 13.6529C5.74267 13.7464 5.37964 13.7938 5.01506 13.7939C4.75006 13.7939 4.49306 13.7689 4.24206 13.7189C4.51014 14.5268 5.02317 15.2312 5.70988 15.7343C6.39659 16.2373 7.22291 16.514 8.07406 16.5259C6.61413 17.6505 4.82188 18.258 2.97906 18.2529C2.64706 18.2529 2.32106 18.2329 2.00006 18.1969C3.88131 19.3876 6.06265 20.0182 8.28906 20.0149C15.8361 20.0149 19.9621 13.8579 19.9621 8.51892L19.9481 7.99592C20.7529 7.42959 21.4482 6.72177 22.0001 5.90692Z" fill="#ffffff"/>
</svg>
