<svg width="24" height="24" viewBox="0 0 24 24" fill="none" xmlns="http://www.w3.org/2000/svg">
<path d="M17.8121 5.01711H6.14506C3.85506 5.01711 2.00006 6.85211 2.00006 9.11611V14.8841C2.00006 17.1481 3.85606 18.9841 6.14506 18.9841H17.8121C20.1021 18.9841 21.9571 17.1481 21.9571 14.8841V9.11611C21.9571 6.85211 20.1011 5.01611 17.8121 5.01611V5.01711ZM15.0091 12.2801L9.55206 14.8551C9.51878 14.8711 9.48198 14.8785 9.44509 14.8765C9.40821 14.8744 9.37243 14.8631 9.34109 14.8436C9.30976 14.824 9.28388 14.7968 9.26586 14.7646C9.24785 14.7323 9.23828 14.6961 9.23806 14.6591V9.35011C9.23873 9.31299 9.24878 9.27663 9.26728 9.24444C9.28579 9.21224 9.31214 9.18526 9.34388 9.16599C9.37562 9.14673 9.41173 9.13581 9.44883 9.13425C9.48593 9.1327 9.52282 9.14057 9.55606 9.15711L15.0141 11.8921C15.0504 11.9102 15.0809 11.9383 15.1021 11.9729C15.1232 12.0076 15.1342 12.0476 15.1336 12.0882C15.1331 12.1288 15.1212 12.1685 15.0991 12.2026C15.0771 12.2367 15.0459 12.2639 15.0091 12.2811V12.2801Z" fill="#ffffff"/>
</svg>
